<?xml version="1.0" encoding="UTF-8"?>
<svg version="1.1" xmlns="http://www.w3.org/2000/svg" width="1642" height="762">
<path d="M0 0 C541.86 0 1083.72 0 1642 0 C1642 251.46 1642 502.92 1642 762 C1100.14 762 558.28 762 0 762 C0 510.54 0 259.08 0 0 Z " fill="#FEFEFE" transform="translate(0,0)"/>
<path d="M0 0 C16.17046238 12.3656477 27.33082551 30.16675328 30.80859375 50.3046875 C33.02686586 72.29994901 27.66519226 93.87338785 13.58203125 111.21875 C7.91017297 117.88059042 1.85062838 122.96024243 -5.9140625 127.0546875 C-6.5215332 127.38017578 -7.12900391 127.70566406 -7.75488281 128.04101562 C-26.77382055 138.07237375 -47.28161187 145.26409899 -67.28924561 153.0345459 C-70.46603856 154.26921437 -73.64102973 155.50845966 -76.81578064 156.74836731 C-89.32691647 161.63438189 -101.85191298 166.48455386 -114.37950134 171.32820129 C-119.47477052 173.29845692 -124.56951574 175.27006474 -129.6640625 177.2421875 C-130.69647064 177.64174652 -131.72887878 178.04130554 -132.79257202 178.45297241 C-149.34195592 184.86088228 -165.84787764 191.37359991 -182.33895874 197.92987061 C-198.54005453 204.36692724 -214.79694157 210.64510917 -231.10522461 216.80541992 C-240.75207674 220.45133041 -250.35580859 224.18160057 -259.9140625 228.0546875 C-252.05052017 231.36136784 -244.15633522 234.57298725 -236.21484375 237.6875 C-235.12214172 238.11705994 -234.0294397 238.54661987 -232.90362549 238.98919678 C-229.34516262 240.38745304 -225.78591374 241.78369434 -222.2265625 243.1796875 C-220.98353277 243.66761708 -219.74052146 244.15559357 -218.49752808 244.64361572 C-198.1501017 252.63176656 -177.77797491 260.55530903 -157.3926239 268.44618225 C-156.4109877 268.82616867 -155.4293515 269.20615509 -154.41796875 269.59765625 C-153.44869949 269.97284897 -152.47943024 270.34804169 -151.48078918 270.73460388 C-137.45341083 276.16658413 -123.4435169 281.64341612 -109.432724 287.11799622 C-102.54868526 289.80763405 -95.66276918 292.49244156 -88.77653503 295.17645264 C-81.92299844 297.84802951 -75.07110675 300.52379945 -68.220047 303.20172119 C-64.22664115 304.76227003 -60.23239052 306.32056775 -56.23583984 307.87304688 C13.56513971 334.98799075 13.56513971 334.98799075 26.75854492 364.2097168 C35.27522323 384.2747775 35.22954644 404.18736553 27.4609375 424.6171875 C19.30279493 444.68621822 3.62348715 458.43143676 -15.9140625 467.0546875 C-18.87639618 468.23045912 -21.84339901 469.20320369 -24.9140625 470.0546875 C-25.64753906 470.2609375 -26.38101563 470.4671875 -27.13671875 470.6796875 C-61.63288639 478.97258924 -100.88555043 455.80860787 -132.06210327 443.53674316 C-141.77687233 439.71297134 -151.50026292 435.91151776 -161.2265625 432.1171875 C-162.05064606 431.79553619 -162.87472961 431.47388489 -163.7237854 431.14248657 C-178.87713391 425.22820847 -194.04448046 419.35024125 -209.21279907 413.4744873 C-224.2906864 407.63285001 -239.35766782 401.76399651 -254.4140625 395.8671875 C-255.36609558 395.49433624 -256.31812866 395.12148499 -257.29901123 394.73733521 C-261.09197248 393.25177952 -264.88488401 391.76609695 -268.67773438 390.28025818 C-278.19175021 386.55344526 -287.70818451 382.83284476 -297.2265625 379.1171875 C-298.05282135 378.79462982 -298.8790802 378.47207214 -299.7303772 378.13973999 C-314.88154766 372.22642842 -330.04670022 366.34938138 -345.21279907 360.4744873 C-362.20090268 353.89277347 -379.17375878 347.27285794 -396.13598633 340.62475586 C-398.02294043 339.88523149 -399.90990327 339.14572941 -401.796875 338.40625 C-402.72213486 338.04364578 -403.64739471 337.68104156 -404.60069275 337.30744934 C-410.99046683 334.80466626 -417.38462752 332.31334762 -423.78125 329.828125 C-520.2019063 292.35863184 -520.2019063 292.35863184 -534.08886719 261.04150391 C-543.12943784 239.2745915 -541.37424402 217.38101088 -532.98974609 195.66015625 C-529.07643653 186.36426542 -523.87232471 178.39818222 -516.9140625 171.0546875 C-516.25148438 170.35085938 -515.58890625 169.64703125 -514.90625 168.921875 C-504.51786523 158.84948672 -490.23015279 152.97095818 -476.9765625 147.6796875 C-475.53374691 147.09470333 -474.09112731 146.50923556 -472.64868164 145.92333984 C-454.5321131 138.59733955 -436.27858842 131.60937601 -418.04548645 124.58015442 C-407.99118235 120.70263609 -397.95099756 116.78940498 -387.9140625 112.8671875 C-386.23389729 112.21091044 -384.55372153 111.55466039 -382.87353516 110.8984375 C-380.37346964 109.92193968 -377.87343147 108.94537211 -375.37347412 107.96859741 C-369.54008612 105.68940867 -363.70583302 103.41244584 -357.87109375 101.13671875 C-343.85531398 95.66979759 -329.8396329 90.20269425 -315.83203125 84.71484375 C-312.02607041 83.22388495 -308.22008904 81.73297858 -304.4140625 80.2421875 C-303.46771942 79.87151154 -302.52137634 79.50083557 -301.5463562 79.118927 C-285.08171905 72.67144335 -268.59884211 66.27164779 -252.11010742 59.88607788 C-239.65044007 55.06055759 -227.19907236 50.21650336 -214.76928711 45.31445312 C-202.43494264 40.45799384 -190.06830054 35.68484168 -177.70617676 30.8996582 C-162.26995039 24.92323128 -146.85257151 18.90038579 -131.44726562 12.84472656 C-123.16515249 9.59051138 -114.87974078 6.34471011 -106.59283447 3.10272217 C-104.88107244 2.43301755 -103.16943112 1.76300428 -101.45794678 1.09259033 C-92.64740527 -2.35733036 -83.82270669 -5.75481126 -74.9140625 -8.9453125 C-74.07407715 -9.25017578 -73.2340918 -9.55503906 -72.36865234 -9.86914062 C-47.477966 -18.67150847 -21.79816064 -14.55158713 0 0 Z " fill="#000000" transform="translate(541.9140625,152.9453125)"/>
<path d="M0 0 C5.09426348 2.00563763 10.19336001 3.99892875 15.29180908 5.99389648 C23.98539943 9.39720203 32.67656309 12.80663442 41.36602783 16.22045898 C52.40818357 20.55809318 63.45477356 24.88422287 74.50665283 29.19702148 C75.73138809 29.6749968 75.73138809 29.6749968 76.98086548 30.16262817 C92.04117466 36.03862494 107.11516492 41.87921865 122.18981934 47.71829224 C138.04961265 53.86225295 153.89416041 60.04418155 169.72955322 66.25073242 C184.49633941 72.03766498 199.27849461 77.78390107 214.06915283 83.50952148 C233.16836221 90.90366682 252.24290924 98.35916086 271.30645752 105.84472656 C273.41615175 106.67311173 275.52585222 107.501481 277.63555908 108.32983398 C278.66651703 108.73463486 279.69747498 109.13943573 280.75967407 109.5565033 C290.24566005 113.27986883 299.73812106 116.9865341 309.23254395 120.68832397 C311.78555419 121.68391905 314.33829129 122.68021101 316.89093018 123.67675781 C323.56852958 126.28346314 330.2462147 128.88980008 336.93029785 131.47984314 C401.76440442 156.61115355 401.76440442 156.61115355 416.20587158 186.95483398 C424.63101462 206.98367431 427.69981646 229.45686199 419.88165283 250.13452148 C416.2851383 258.78375889 411.9844275 266.98652022 405.88165283 274.13452148 C405.21262939 275.01624023 405.21262939 275.01624023 404.53009033 275.91577148 C386.46158048 298.93040974 345.89295442 307.95061896 319.57208252 318.09686279 C310.75552504 321.4972778 301.94350461 324.90943524 293.13165283 328.32202148 C292.10123871 328.72085541 291.07082458 329.11968933 290.00918579 329.53060913 C273.45003663 335.94221668 256.9346476 342.45932759 240.43359375 349.01876831 C225.54794662 354.93235037 210.61450409 360.70489928 195.63537598 366.37713623 C183.49297617 370.97634487 171.38815541 375.65850711 159.31915283 380.44702148 C144.86581652 386.18128159 130.38306883 391.83543838 115.88165283 397.44702148 C99.86901557 403.64424965 83.86761912 409.86881073 67.88165283 416.13452148 C44.82208962 425.17015416 21.7382293 434.14238112 -1.36352539 443.06958008 C-4.00399542 444.09031612 -6.64399907 445.11224886 -9.28387451 446.13452148 C-74.53647865 471.39121722 -74.53647865 471.39121722 -102.40350342 459.36889648 C-110.4686965 455.63407146 -117.5383257 451.15530062 -124.11834717 445.13452148 C-125.14121826 444.24893555 -125.14121826 444.24893555 -126.18475342 443.34545898 C-140.27876113 430.38228164 -148.15644739 411.10408681 -149.36834717 392.24389648 C-150.18166977 371.39107505 -142.69063299 351.99048064 -129.11834717 336.13452148 C-114.98387911 320.90223067 -92.696121 313.57315646 -73.74334717 306.19702148 C-72.07953702 305.54539774 -70.41588545 304.89336896 -68.75238037 304.2409668 C-64.40595446 302.53778324 -60.05722025 300.84057626 -55.70788574 299.14483643 C-52.36997552 297.84254242 -49.03352158 296.53654471 -45.69714355 295.23033142 C-25.31031712 287.24922841 -4.89933969 279.33051268 15.5151062 271.42037964 C33.79355729 264.33768718 52.05939163 257.22317093 70.31790161 250.08924866 C77.36309484 247.33661663 84.40941726 244.58688424 91.45605469 241.83795166 C95.86638967 240.11743472 100.27658776 238.39656976 104.68634033 236.67456055 C111.9652614 233.83225469 119.24478561 230.99168127 126.53009033 228.16577148 C127.62627686 227.73965576 128.72246338 227.31354004 129.85186768 226.87451172 C131.80187895 226.11666286 133.75266591 225.36080531 135.70440674 224.60742188 C139.5781999 223.3466135 139.5781999 223.3466135 142.88165283 221.13452148 C122.2467904 212.947854 101.58448131 204.83535836 80.88165283 196.82202148 C64.80811046 190.60002537 48.74300272 184.35745883 32.69415283 178.07202148 C31.75310699 177.70348053 30.81206116 177.33493958 29.84249878 176.95523071 C25.09656691 175.09638156 20.35086523 173.23694558 15.60528564 171.37719727 C6.89363192 167.96337223 -1.81955956 164.55347717 -10.53283691 161.14379883 C-13.41062863 160.01743499 -16.28819012 158.89048468 -19.16571045 157.76342773 C-28.56628391 154.08243844 -37.97084381 150.41220168 -47.38397217 146.76342773 C-84.61814679 132.32341242 -84.61814679 132.32341242 -98.11834717 126.13452148 C-98.852146 125.80049316 -99.58594482 125.46646484 -100.34197998 125.12231445 C-121.09101013 115.56864013 -134.36407865 101.61453598 -142.99334717 80.50952148 C-149.77808454 61.57165186 -148.78739925 41.04448496 -140.43328857 22.80859375 C-130.81758882 3.15331658 -114.81863913 -10.11527061 -94.69256592 -18.07641602 C-61.71843689 -28.18381217 -30.19354398 -11.90411811 0 0 Z " fill="#000000" transform="translate(1214.1183471679688,159.865478515625)"/>
<path d="M0 0 C16.63811141 12.48694322 27.58778548 30.05377722 31.01757812 50.59570312 C35.19413863 82.49586237 16.61190723 109.39974269 1.16357422 135.63330078 C-1.96331614 140.9639748 -5.04713128 146.31936284 -8.13134766 151.67480469 C-8.75356201 152.7544751 -9.37577637 153.83414551 -10.0168457 154.9465332 C-11.27899808 157.13677233 -12.5409607 159.32712081 -13.80273438 161.51757812 C-16.93064914 166.94640411 -20.06243213 172.3729975 -23.19384766 177.79980469 C-24.44386645 179.96646051 -25.69386644 182.13312718 -26.94384766 184.29980469 C-88.81884766 291.54980469 -150.69384766 398.79980469 -214.44384766 509.29980469 C-215.06267822 510.37246582 -215.68150879 511.44512695 -216.3190918 512.55029297 C-217.56820284 514.71537539 -218.81738895 516.88041451 -220.06665039 519.04541016 C-223.20587075 524.48596175 -226.34375328 529.92727684 -229.47900391 535.37011719 C-235.50132094 545.82186668 -241.54054103 556.26280017 -247.63134766 566.67480469 C-253.05343464 575.94544399 -258.39708777 585.25917167 -263.71408081 594.590271 C-268.88763553 603.66759104 -274.1252692 612.70552002 -279.40478516 621.72167969 C-283.88551388 629.38555053 -288.29841365 637.08687331 -292.69384766 644.79980469 C-299.40727871 656.5755191 -306.17688065 668.31685904 -313.04882812 680.00097656 C-314.14156203 681.86014865 -315.23175198 683.7208184 -316.31933594 685.58300781 C-322.27108496 695.76521128 -328.23748157 705.63144563 -335.69384766 714.79980469 C-336.60457031 715.99089844 -336.60457031 715.99089844 -337.53369141 717.20605469 C-348.91886656 731.26301513 -367.0837708 738.87802911 -384.69384766 740.79980469 C-407.492089 742.69919934 -427.15285213 735.9432367 -444.88134766 721.54980469 C-459.56863003 708.05091238 -468.94316608 687.71221898 -469.82666016 667.80761719 C-469.81851752 664.80298444 -469.77683962 661.80332352 -469.69384766 658.79980469 C-469.67708984 658.04699219 -469.66033203 657.29417969 -469.64306641 656.51855469 C-468.30347511 636.0036708 -453.60320355 615.34040826 -443.46337891 598.19824219 C-439.49069977 591.48036791 -435.61810548 584.7067416 -431.75634766 577.92480469 C-430.40531629 575.5547099 -429.05363552 573.1849861 -427.70166016 570.81542969 C-427.36781815 570.23026581 -427.03397614 569.64510193 -426.6900177 569.04220581 C-421.34592342 559.68054537 -415.94591907 550.35100851 -410.55273438 541.01757812 C-407.43060161 535.61309823 -404.31243561 530.20633057 -401.19384766 524.79980469 C-399.94386644 522.63312718 -398.69386645 520.46646051 -397.44384766 518.29980469 C-396.82509766 517.22730469 -396.20634766 516.15480469 -395.56884766 515.04980469 C-333.69384766 407.79980469 -271.81884766 300.54980469 -209.94384766 193.29980469 C-209.32501709 192.22714355 -208.70618652 191.15448242 -208.06860352 190.04931641 C-206.81949248 187.88423398 -205.57030636 185.71919487 -204.32104492 183.55419922 C-201.18182456 178.11364763 -198.04394203 172.67233253 -194.90869141 167.22949219 C-188.88637437 156.77774269 -182.84715428 146.33680921 -176.75634766 135.92480469 C-171.68109642 127.24718227 -166.67125999 118.53374901 -161.69384766 109.79980469 C-156.15496104 100.08063255 -150.56521844 90.39311838 -144.91259766 80.73950195 C-141.27459641 74.5230364 -137.67198529 68.28745398 -134.08911133 62.0390625 C-97.12464122 -2.35711085 -97.12464122 -2.35711085 -64.93603516 -12.32519531 C-43.12455625 -18.21166673 -18.31102268 -12.97448652 0 0 Z " fill="#000000" transform="translate(1038.69384765625,18.2001953125)"/>
</svg>
