<?xml version="1.0" encoding="UTF-8"?>
<svg version="1.1" xmlns="http://www.w3.org/2000/svg" width="1056" height="1006">
<path d="M0 0 C348.48 0 696.96 0 1056 0 C1056 331.98 1056 663.96 1056 1006 C707.52 1006 359.04 1006 0 1006 C0 674.02 0 342.04 0 0 Z " fill="#000000" transform="translate(0,0)"/>
<path d="M0 0 C1.31605464 -0.01174892 2.63210927 -0.02349783 3.98804435 -0.03560278 C5.44994733 -0.02335204 6.91184654 -0.01064488 8.37374204 0.00246805 C9.93201126 -0.0018364 11.49027569 -0.00833401 13.04852769 -0.01683018 C17.35201852 -0.03388194 21.65493358 -0.01960425 25.95839475 -0.00043987 C30.6320076 0.01489783 35.30554859 0.00131486 39.97916353 -0.00865901 C48.17731911 -0.02212759 56.37530019 -0.01692919 64.57344621 0.00034994 C76.76404002 0.02597316 88.95450924 0.02306685 101.14512083 0.01430736 C121.65081764 0.0004266 142.15644091 0.01015024 162.66212648 0.03351301 C182.97432122 0.05663668 203.28648345 0.07031891 223.59869188 0.07103056 C224.8607296 0.07108401 226.12276732 0.07113745 227.42304861 0.07119252 C232.54565607 0.07138112 237.66826352 0.0715027 242.79087099 0.07153485 C290.18761249 0.07187103 337.58429765 0.09778112 384.98101747 0.13798054 C428.41867001 0.17479319 471.85629236 0.19494902 515.29396051 0.19775671 C516.66698582 0.19784871 518.04001112 0.19794114 519.41303643 0.19803399 C522.15581507 0.19821881 524.89859371 0.19840154 527.64137235 0.19858217 C533.7909951 0.19898725 539.94061785 0.19939783 546.0902406 0.19982829 C547.45223351 0.19992286 548.81422643 0.20001565 550.17621935 0.20010666 C592.92912432 0.20297513 635.68202361 0.22036348 678.43492359 0.2406578 C692.40459238 0.24727977 706.37426031 0.25296654 720.34393042 0.25584811 C721.60326869 0.25610929 722.86260695 0.25637046 724.16010698 0.25663955 C725.41696315 0.25689868 726.67381932 0.2571578 727.96876205 0.25742478 C752.14134966 0.26241452 776.31391593 0.27359076 800.48649181 0.29872508 C812.60996341 0.3111602 824.73340897 0.31817092 836.8568871 0.3173827 C844.94298955 0.31742035 853.02906408 0.32469525 861.11515553 0.33800936 C865.73020984 0.34541231 870.3452078 0.34960428 874.96026719 0.34513355 C879.15252459 0.34114522 883.34466568 0.34623774 887.53690523 0.35880723 C889.04997361 0.36171821 890.56305299 0.36123075 892.07611843 0.35706335 C894.12069384 0.35191504 896.16529009 0.3601535 898.20985222 0.36914349 C899.34489639 0.36995022 900.47994056 0.37075696 901.64938 0.37158814 C904.54265411 0.62332884 906.15460448 1.00557231 908.54225153 2.62329382 C910.6110057 5.72642508 910.79232057 6.37251238 910.79294986 9.8833884 C910.79795689 10.75918962 910.80296393 11.63499084 910.80812269 12.53733149 C910.80344036 13.50214474 910.79875803 14.466958 910.79393381 15.46100801 C910.79684069 16.48811399 910.79974757 17.51521996 910.80274254 18.57345036 C910.81009909 22.04942779 910.80307292 25.52523181 910.79621881 29.00120825 C910.79852101 31.50470139 910.80169591 34.00819385 910.8056733 36.51168489 C910.81230708 41.97245848 910.8126673 47.43317804 910.80757898 52.89395231 C910.80003306 61.01417892 910.80387157 69.13437202 910.8099956 77.25459838 C910.82054385 91.75519378 910.8196076 106.25577159 910.81383777 120.75636868 C910.80881295 133.44646421 910.80749031 146.13655328 910.80988306 158.82664961 C910.81011221 160.08773827 910.81011221 160.08773827 910.810346 161.37430348 C910.81096864 164.78682159 910.81160544 168.19933971 910.81226553 171.61185781 C910.8183881 203.64581368 910.81282946 235.67975832 910.80207173 267.71371246 C910.79258088 296.19179833 910.79342853 324.66986631 910.80299371 353.14795202 C910.81369668 385.12061983 910.81795308 417.09327771 910.81176919 449.06594706 C910.81112772 452.47267212 910.81050205 455.87939719 910.80988306 459.28612226 C910.8097249 460.12498541 910.80956675 460.96384856 910.8094038 461.8281318 C910.80712617 474.51147199 910.80979443 487.19480501 910.81484216 499.8781442 C910.82055165 514.29640084 910.81915039 528.71463709 910.80828068 543.13289117 C910.80239405 551.20826889 910.80204493 559.28360249 910.80957303 567.3589791 C910.81456603 573.37730828 910.80917784 579.39557977 910.79962388 585.41390545 C910.79737794 587.85734249 910.79855261 590.30078539 910.80337545 592.7442187 C910.80940212 596.04947805 910.80327499 599.35449223 910.79393381 602.65973848 C910.79861614 603.62221057 910.80329847 604.58468265 910.80812269 605.57632056 C910.80311566 606.4546253 910.79810862 607.33293004 910.79294986 608.23785007 C910.79274658 609.37207022 910.79274658 609.37207022 910.79253919 610.52920392 C910.50334878 612.94878267 909.80048939 614.5462881 908.54225153 616.62329382 C901.20822428 621.7765373 885.83957982 620.54137502 877.14039606 619.49048132 C870.14432555 617.80436092 867.11901814 613.24066726 863.50343317 607.37817663 C860.40908583 601.62367476 860.40908583 601.62367476 860.82008356 598.53613561 C861.9920706 595.43183592 864.01158823 592.87478427 865.91725153 590.18579382 C892.11564986 551.98856732 902.43336556 505.64348138 893.990982 459.97827429 C893.84290094 459.20113073 893.69481989 458.42398718 893.54225153 457.62329382 C893.40835016 456.89384557 893.27444879 456.16439733 893.13648981 455.4128446 C887.3329367 424.73491114 871.80982309 395.35364179 849.97828668 373.09448522 C848.46321209 371.54231938 846.97760339 369.96487845 845.49147028 368.38501257 C815.24988136 336.67914317 770.63334849 319.42263956 727.23927301 318.1718778 C679.10153899 317.53928128 635.49578972 336.21206804 600.98854059 369.21313757 C570.74135221 398.70465683 552.40682812 441.34553822 551.20631403 483.46313757 C551.17643648 486.16383652 551.15973873 488.86036221 551.16725153 491.56079382 C551.16756876 492.62655142 551.16756876 492.62655142 551.1678924 493.71383947 C551.22364371 512.64524011 554.02514588 530.81114584 560.54225153 548.62329382 C560.97150934 549.82470007 561.40076715 551.02610632 561.84303278 552.26391882 C570.95700047 576.39667834 584.93022652 597.56830115 603.45240778 615.50610632 C605.54225153 617.62329382 605.54225153 617.62329382 605.54225153 618.62329382 C547.25252875 618.69174243 488.96280191 618.75542811 430.67304987 618.79266638 C429.37973915 618.79349472 429.37973915 618.79349472 428.06030094 618.79433979 C409.3238556 618.80631041 390.58740983 618.81739128 371.85096343 618.82755513 C362.66309843 618.83254464 353.47523355 618.83773083 344.28736871 618.84302038 C343.37304802 618.84354342 342.45872733 618.84406645 341.51669995 618.84460534 C311.86153541 618.86166179 282.20640129 618.89171525 252.55125519 618.9284827 C222.08597817 618.96618612 191.620718 618.99082933 161.15541805 618.99895378 C156.85599488 619.00010646 152.55657178 619.00140901 148.25714868 619.00280279 C147.41093028 619.00307248 146.56471188 619.00334217 145.69285049 619.00362004 C132.05110438 619.0083536 118.40941022 619.0269238 104.76768532 619.05062195 C91.06522774 619.074132 77.36282186 619.08317553 63.66034481 619.07729933 C55.51160442 619.07424861 47.36305271 619.08244244 39.21434626 619.10648399 C33.14128241 619.12318332 27.06842303 619.1191754 20.99534073 619.1068894 C18.52960106 619.10518925 16.06384581 619.11035004 13.59813711 619.12282655 C10.26252912 619.1387321 6.92786517 619.13031798 3.59227365 619.11548513 C2.13524662 619.13124721 2.13524662 619.13124721 0.6487847 619.14732772 C-5.84088608 619.08150273 -5.84088608 619.08150273 -9.02337486 616.71753186 C-11.07756571 613.71833794 -11.58312894 612.07839114 -11.58770031 608.4885484 C-11.59122873 607.6152507 -11.59475715 606.74195299 -11.59839249 605.84219173 C-11.59719471 604.87503731 -11.59599693 603.90788289 -11.59476286 602.91142076 C-11.59741469 601.88576823 -11.60006652 600.8601157 -11.6027987 599.80338278 C-11.61052934 596.32636718 -11.6110523 592.84938667 -11.61164862 589.37236303 C-11.61566075 586.87044586 -11.62009855 584.36852935 -11.62492818 581.86661363 C-11.63566612 575.68584855 -11.64165613 569.50509344 -11.64563705 563.32432079 C-11.65064018 555.92482843 -11.66136669 548.52534713 -11.67211879 541.12586129 C-11.69776624 523.23951148 -11.71278703 505.35315736 -11.72562926 487.46679444 C-11.7298821 481.54444419 -11.73444777 475.62209426 -11.73921257 469.6997444 C-11.7644693 438.2295574 -11.78652374 406.75936989 -11.79894072 375.28917497 C-11.80186219 367.99568137 -11.80482968 360.70218778 -11.80784613 353.40869421 C-11.80821704 352.50254426 -11.80858795 351.59639431 -11.8089701 350.66278528 C-11.82113084 321.27047264 -11.85208298 291.87821982 -11.89376765 262.48593528 C-11.93652185 232.28458063 -11.96317742 202.08325756 -11.96841543 171.88187181 C-11.96915592 167.61934155 -11.97006661 163.35681134 -11.97107321 159.09428114 C-11.97126382 158.25533891 -11.97145444 157.41639669 -11.97165083 156.55203197 C-11.97516921 143.03146189 -11.99548911 129.51096655 -12.02186985 115.99042395 C-12.04797022 102.4091646 -12.0557607 88.82799189 -12.04476856 75.24671104 C-12.03877691 67.17145132 -12.04678085 59.09648482 -12.07459939 51.02126928 C-12.0938089 45.00119876 -12.08708442 38.98145786 -12.07003023 32.96136836 C-12.06720917 30.51855028 -12.07294407 28.07570516 -12.08784316 25.6329309 C-12.10679038 22.32567444 -12.09526701 19.01991019 -12.07578093 15.71269029 C-12.08863015 14.75255937 -12.10147937 13.79242845 -12.11471796 12.80320266 C-12.10322527 11.9223944 -12.09173258 11.04158614 -12.07989162 10.13408673 C-12.08072587 8.99976493 -12.08072587 8.99976493 -12.08157697 7.84252755 C-10.34560919 1.66692273 -5.9028897 -0.00172869 0 0 Z " fill="#FEFEFE" transform="translate(78.45774847269058,84.3767061829567)"/>
<path d="M0 0 C20.46 0 40.92 0 62 0 C62 0.33 62 0.66 62 1 C60.76636719 1.16435547 60.76636719 1.16435547 59.5078125 1.33203125 C42.76741931 3.70970834 28.59609318 9.0591498 17 22 C11.74392327 29.37820652 6.76424496 37.40967392 4.875 46.375 C4.72804688 47.04273438 4.58109375 47.71046875 4.4296875 48.3984375 C3.15168254 56.13617664 2.85532646 63.68815182 2.86857224 71.51355171 C2.8665196 72.64896436 2.86446697 73.78437701 2.86235213 74.9541961 C2.85669329 78.76253531 2.85813801 82.57083823 2.85955811 86.37918091 C2.8575228 89.13575072 2.85399918 91.8923182 2.8505547 94.64888656 C2.84299022 101.43267828 2.84078243 108.21646213 2.84022565 115.00025763 C2.83931049 123.12761789 2.83263847 131.25497091 2.82587883 139.38232804 C2.80983295 159.02295937 2.80391736 178.6635899 2.79913008 198.3042266 C2.79679294 207.59750296 2.79319018 216.89077871 2.7894347 226.1840546 C2.77660109 258.00347079 2.76588123 289.82288665 2.7624321 321.64230537 C2.76221047 323.63901488 2.76198868 325.63572438 2.76176675 327.63243388 C2.76154611 329.6339242 2.76132563 331.63541452 2.7611053 333.63690484 C2.76066275 337.65214229 2.76021563 341.66737974 2.75976562 345.68261719 C2.75965623 346.67815959 2.75954684 347.67370199 2.75943414 348.69941234 C2.75580325 380.98213906 2.73988105 413.26484333 2.71657526 445.54756146 C2.69197277 479.68892841 2.67825909 513.83028252 2.67706418 547.97165859 C2.67689273 551.72028089 2.6766773 555.46890319 2.67642975 559.21752548 C2.67637398 560.14052331 2.67631821 561.06352113 2.67626075 562.01448858 C2.67511075 576.8595471 2.6640932 591.70458254 2.64954269 606.54963327 C2.63516813 621.4733265 2.63194616 636.39699019 2.63998267 651.32068844 C2.6444342 660.1825385 2.64059738 669.04429313 2.62474416 677.90613062 C2.61497507 683.832016 2.61619079 689.75783471 2.62618039 695.68371952 C2.63155855 699.05594851 2.63065443 702.42784617 2.61967167 705.80008341 C2.54823976 729.21962026 3.71151072 749.59713952 20 768 C35.71836689 783.53250783 54.67836243 786.14202324 75.76222229 786.15821838 C77.14767454 786.16279134 78.53312543 786.16779242 79.91857475 786.17318195 C83.70636329 786.18668899 87.49414292 786.19415971 91.28194916 786.20060861 C95.3738643 786.20864544 99.46576109 786.22233182 103.55766296 786.23532104 C110.64077235 786.2570374 117.72388363 786.27519949 124.80700874 786.29092598 C135.04793334 786.31366883 145.28883758 786.34180545 155.52974486 786.37124526 C172.14620436 786.41886715 188.76267221 786.46214591 205.37915039 786.50268555 C221.51750335 786.542068 237.6558489 786.5835008 253.79418945 786.62768555 C254.78948146 786.63040982 255.78477348 786.63313409 256.81022585 786.63594092 C261.80347003 786.64962085 266.7967141 786.66334103 271.78995812 786.67708123 C313.19328997 786.79096109 354.59663781 786.89778916 396 787 C395.53400976 788.73076526 395.06636905 790.4610862 394.59805489 792.1912241 C394.33781882 793.15484507 394.07758276 794.11846604 393.80946076 795.11128765 C392.59229615 799.45496755 391.177179 803.72360692 389.73779297 807.99780273 C389.42684692 808.92932663 389.11590088 809.86085052 388.79553223 810.82060242 C387.78052486 813.8592018 386.76133428 816.89638052 385.7421875 819.93359375 C385.03111547 822.06053058 384.32035598 824.18757191 383.6098938 826.31471252 C381.7485955 831.88537114 379.88394826 837.45490226 378.01831055 843.02410889 C375.0247817 851.96138739 372.03538657 860.90004698 369.04788589 869.83934212 C368.00510812 872.95745849 366.96028514 876.07488416 365.91525269 879.19224548 C365.27790571 881.09746032 364.6406239 883.00269697 364.00341797 884.90795898 C363.71250275 885.77396729 363.42158752 886.63997559 363.12185669 887.53222656 C362.85556458 888.32958725 362.58927246 889.12694794 362.31491089 889.94847107 C362.08375013 890.6384339 361.85258938 891.32839674 361.61442375 892.03926754 C360.95136097 894.00620017 360.95136097 894.00620017 360.62777901 896.12773228 C360 898 360 898 356.640625 900.0078125 C355.18143141 900.7224886 353.71754923 901.42764276 352.25 902.125 C328.44306275 914.09967208 311.89634736 933.47180381 302 958 C301.73815918 958.63115723 301.47631836 959.26231445 301.20654297 959.91259766 C295.22583795 974.88601515 296.0552048 989.64432553 295 1006 C197.65 1006 100.3 1006 0 1006 C0 674.02 0 342.04 0 0 Z " fill="#FEFEFE" transform="translate(0,0)"/>
<path d="M0 0 C20.46 0 40.92 0 62 0 C62 331.98 62 663.96 62 1006 C-35.35 1006 -132.7 1006 -233 1006 C-233.66 995.77 -234.32 985.54 -235 975 C-241.81326418 946.08517154 -257.13760036 923.18062438 -281.71875 906.28442383 C-284.10807164 904.85944298 -284.10807164 904.85944298 -287.34375 903.76831055 C-297.41871146 899.80753819 -297.41871146 899.80753819 -300.08496094 894.47338867 C-301.96141501 889.83406722 -303.20774152 885.01425795 -304.5 880.1875 C-305.32172679 877.37054499 -306.16354243 874.56000615 -307.00509644 871.74891663 C-307.62195747 869.68191959 -308.23219407 867.61293627 -308.8364563 865.54222107 C-311.59597808 856.13425695 -314.65018175 846.83868947 -317.7734375 837.546875 C-318.15003132 836.42583343 -318.15003132 836.42583343 -318.53423309 835.28214455 C-319.80381704 831.5054597 -321.07638462 827.72978931 -322.35083008 823.95474243 C-324.57901615 817.3538538 -326.79633778 810.74935877 -329.00368118 804.14147186 C-329.66766398 802.15702842 -330.33535476 800.17385912 -331.00326538 798.19073486 C-331.59695419 796.41494049 -331.59695419 796.41494049 -332.20263672 794.60327148 C-332.55123749 793.56492661 -332.89983826 792.52658173 -333.25900269 791.45677185 C-334 789 -334 789 -334 787 C-302.57671598 786.70324483 -271.15380347 786.47327785 -239.72945026 786.33615072 C-236.01705959 786.31989211 -232.30467169 786.30306586 -228.59228516 786.28588867 C-227.8532358 786.28247864 -227.11418644 786.2790686 -226.35274164 786.27555523 C-214.39599068 786.219033 -202.44005472 786.1165606 -190.48378678 785.99701365 C-178.20959467 785.8753142 -165.93582848 785.80320932 -153.66105783 785.77684957 C-146.09019933 785.75903683 -138.52164437 785.7028515 -130.95149533 785.59708593 C-125.14018943 785.52004466 -119.33034934 785.51211354 -113.5186348 785.52960014 C-111.13933145 785.52602883 -108.75993952 785.50023388 -106.38115692 785.45032883 C-87.46099097 785.07292789 -87.46099097 785.07292789 -82.40380478 789.86329079 C-79.73132298 792.99335497 -77.86836556 796.34450222 -76 800 C-75.12490324 801.25255687 -74.22839127 802.4910475 -73.29296875 803.69921875 C-72.59816406 804.68535156 -71.90335938 805.67148437 -71.1875 806.6875 C-70.35331704 807.86490402 -69.51865657 809.04196985 -68.68359375 810.21875 C-68.25159668 810.82847656 -67.81959961 811.43820312 -67.37451172 812.06640625 C-59.77411498 822.75826099 -52.02728841 833.34352454 -44.23144531 843.89331055 C-40.82993608 848.5013662 -37.45191175 853.12495464 -34.10449219 857.77246094 C-33.03942439 859.25110954 -31.97238237 860.72833822 -30.90332031 862.20410156 C-28.0358775 866.16274146 -25.19758595 870.13882933 -22.390625 874.140625 C-21.1774252 875.84399354 -19.96389185 877.54712457 -18.75 879.25 C-18.20794922 880.03632812 -17.66589844 880.82265625 -17.10742188 881.6328125 C-12.63817798 887.84995564 -7.36154934 892.54615022 0 895 C2.03706475 895.17210658 4.08119312 895.2665989 6.125 895.3125 C7.73761719 895.36857422 7.73761719 895.36857422 9.3828125 895.42578125 C17.70533778 894.44613195 24.1838607 889.78695226 30.75 884.875 C31.52424316 884.30313965 32.29848633 883.7312793 33.09619141 883.14208984 C34.66050603 881.98346987 36.22192341 880.82092692 37.78027344 879.65429688 C39.81147321 878.14050347 41.85869887 876.65258657 43.9140625 875.171875 C45.06844482 874.32391839 46.22213953 873.47502453 47.375 872.625 C48.37273437 871.89539063 49.37046875 871.16578125 50.3984375 870.4140625 C55.30477902 865.86133118 57.75074166 860.66697366 58.203125 854.01171875 C58.21859375 852.91472656 58.2340625 851.81773437 58.25 850.6875 C58.27578125 849.59824219 58.3015625 848.50898437 58.328125 847.38671875 C57.71639656 841.07280732 54.7331281 836.27291828 51.125 831.1875 C50.73916748 830.64109863 50.35333496 830.09469727 49.95581055 829.53173828 C48.6450658 827.68208909 47.32337506 825.84063097 46 824 C45.51708496 823.32501465 45.03416992 822.6500293 44.53662109 821.95458984 C39.44852984 814.84625102 34.33000756 807.76286869 29.08984375 800.765625 C28.44877686 799.90662598 27.80770996 799.04762695 27.1472168 798.16259766 C25.90556129 796.50183747 24.65852521 794.84508315 23.40551758 793.19287109 C22.84372803 792.44086426 22.28193848 791.68885742 21.703125 790.9140625 C21.20458008 790.2535791 20.70603516 789.5930957 20.19238281 788.91259766 C18.95801307 786.93265241 18.43008232 785.28045124 18 783 C19.34191406 782.38125 19.34191406 782.38125 20.7109375 781.75 C37.71852882 773.71712932 48.71158668 762.81743473 55.80859375 745.2265625 C60.33754377 730.67196517 59.28667535 714.9911652 59.26742554 699.9503479 C59.27006338 697.18192312 59.27568823 694.41350613 59.28115618 691.64508569 C59.29142255 685.63923367 59.29430585 679.63341387 59.29224396 673.62755394 C59.28918527 664.69632212 59.297537 655.76512576 59.30799321 646.83390086 C59.3273053 629.95294637 59.33296035 613.07200405 59.33410732 596.19103982 C59.33502732 583.15422723 59.33914872 570.1174194 59.34550858 557.08060837 C59.34730372 553.32453009 59.34908335 549.56845181 59.35085833 545.81237352 C59.35130043 544.87854352 59.35174252 543.94471352 59.35219802 542.98258565 C59.3645009 516.72723989 59.37239968 490.47189578 59.37151146 464.21654701 C59.3714803 463.2272755 59.37144914 462.23800398 59.37141704 461.21875454 C59.37125083 456.20498895 59.37105275 451.19122336 59.37084763 446.17745776 C59.37080774 445.18174716 59.37076785 444.18603656 59.37072675 443.16015291 C59.37064587 441.14658614 59.37056228 439.13301937 59.37047596 437.11945259 C59.36925025 405.78632224 59.3842697 374.45323516 59.41162109 343.12011719 C59.44235381 307.89912145 59.45955295 272.67815414 59.45769465 237.45714414 C59.45754539 233.70043715 59.45744798 229.94373016 59.45738602 226.18702316 C59.45736271 225.26205896 59.4573394 224.33709476 59.45731538 223.38410135 C59.45725389 208.51254397 59.47001398 193.64102424 59.48725055 178.76947805 C59.50421829 163.82060427 59.50617184 148.87178546 59.4930319 133.92290737 C59.48565102 125.0478856 59.48927498 116.17303104 59.50891658 107.29802705 C59.52094089 101.36226008 59.5182984 95.42661385 59.50397559 89.49085236 C59.49623314 86.11381778 59.49683333 82.73736828 59.51089029 79.36031552 C59.5998659 56.46328788 57.83616857 35.34894527 41 18 C29.03767553 7.12996436 15.87772396 2.41896454 0 1 C0 0.67 0 0.34 0 0 Z " fill="#FEFEFE" transform="translate(994,0)"/>
<path d="M0 0 C21.64274991 19.34643692 35.08384823 47.85675832 37.41015625 76.62890625 C38.03882181 89.28993814 37.75017393 101.34626059 34.41015625 113.62890625 C34.24386719 114.25925781 34.07757812 114.88960937 33.90625 115.5390625 C25.49692068 146.87160062 6.40769663 172.05726459 -21.69238281 188.57666016 C-39.97990066 198.71809118 -59.32452544 203.01093679 -80.15234375 202.87890625 C-81.37630859 202.88664063 -82.60027344 202.894375 -83.86132812 202.90234375 C-114.5542584 202.83700489 -141.44037429 189.17595677 -163.33984375 168.31640625 C-185.65072295 145.21924055 -196.17835549 115.17536904 -195.93920898 83.34155273 C-195.34551481 55.60295326 -186.01586337 30.52112352 -167.58984375 9.62890625 C-167.09097656 8.99855469 -166.59210937 8.36820312 -166.078125 7.71875 C-161.66303084 2.16509288 -156.1606711 -2.02901452 -150.58984375 -6.37109375 C-149.39294922 -7.36109375 -149.39294922 -7.36109375 -148.171875 -8.37109375 C-104.05524312 -43.15940761 -40.82119004 -35.20451524 0 0 Z " fill="#FEFEFE" transform="translate(881.58984375,489.37109375)"/>
<path d="M0 0 C32.50355421 25.28664784 54.5227428 61.81062232 59.70703125 102.93652344 C63.81336833 145.87512149 50.8581018 185.65298081 24 219 C23.20464844 220.0003125 22.40929687 221.000625 21.58984375 222.03125 C19.73466127 224.36086187 17.87182036 226.68375302 16 229 C17.48800002 232.54891984 19.48818679 234.54567632 22.3125 237.125 C28.93008941 243.60947698 34.0309842 251.05681536 39.33105469 258.62548828 C41.99878589 262.42103446 44.71811675 266.17887516 47.4375 269.9375 C47.97093018 270.67677734 48.50436035 271.41605469 49.05395508 272.17773438 C53.58353356 278.44789246 58.17232385 284.67344833 62.76928711 290.89428711 C67.25816363 296.97544905 71.68990813 303.09595509 76.10546875 309.23046875 C80.03392105 314.68083962 84.00714521 320.09667078 88 325.5 C95.27959514 335.3539512 102.44830513 345.28574596 109.60449219 355.22949219 C116.51468334 364.82814677 123.47061036 374.38997545 130.50756836 383.89624023 C131.06581299 384.65106689 131.62405762 385.40589355 132.19921875 386.18359375 C132.69252686 386.84931396 133.18583496 387.51503418 133.6940918 388.20092773 C136.93289772 392.66283853 136.93289772 392.66283853 137.4765625 395.39453125 C136.78032075 399.2010333 134.38093279 400.58428962 131.375 402.6875 C130.79685547 403.10813721 130.21871094 403.52877441 129.62304688 403.9621582 C128.39235955 404.85493527 127.15683763 405.74107929 125.91699219 406.62109375 C123.98043391 408.01407403 122.08655905 409.45249428 120.1953125 410.90625 C118.9641767 411.83417647 117.7324233 412.7612842 116.5 413.6875 C115.92556152 414.13375732 115.35112305 414.58001465 114.75927734 415.03979492 C112.25421912 416.87764547 110.51669689 417.97847096 107.375 418.109375 C104.04882799 416.55570255 102.66061336 414.52594401 100.5 411.5625 C100.0769458 410.98975342 99.6538916 410.41700684 99.21801758 409.8269043 C97.79743008 407.89481314 96.39843611 405.94817262 95 404 C93.97337484 402.58801892 92.94601071 401.17657487 91.91796875 399.765625 C89.15449487 395.9623155 86.40916545 392.14625822 83.66894531 388.32617188 C80.97232368 384.56762727 78.26876936 380.8141024 75.5625 377.0625 C75.02906982 376.32298096 74.49563965 375.58346191 73.94604492 374.8215332 C69.99686917 369.35658392 66.00624584 363.92321038 62 358.5 C54.72057378 348.64592179 47.55169676 338.71425666 40.39550781 328.77050781 C34.30761222 320.31406925 28.19128778 311.88112958 22 303.5 C15.7743932 295.07199091 9.61646521 286.59729063 3.50195312 278.08837891 C2.05113006 276.07109339 0.59622035 274.05681225 -0.859375 272.04296875 C-13 255.20735359 -13 255.20735359 -13 252 C-17.97236572 253.98183067 -22.94099623 255.97149571 -27.89453125 258 C-66.97900931 273.95132811 -109.26102373 276.84838107 -148.82910156 260.25097656 C-185.30531988 244.34790392 -214.72948185 215.64605888 -230.1875 178.8125 C-232.5006615 172.72998063 -234.42916202 166.55894723 -236.25 160.3125 C-236.49645264 159.46985596 -236.74290527 158.62721191 -236.99682617 157.7590332 C-240.24201923 146.17707043 -241.3504689 134.95392362 -241.31567383 122.96508789 C-241.31251859 120.70084173 -241.33604891 118.4379136 -241.36132812 116.17382812 C-241.40353706 106.39744225 -240.29463621 97.51155492 -238 88 C-237.82686279 87.23002686 -237.65372559 86.46005371 -237.4753418 85.66674805 C-231.52988928 59.73974081 -218.37663982 36.12731955 -200 17 C-199.10796875 16.04480469 -198.2159375 15.08960938 -197.296875 14.10546875 C-175.83033781 -8.48071284 -147.34639592 -22.13539908 -117 -28 C-116.05036377 -28.18618896 -115.10072754 -28.37237793 -114.12231445 -28.56420898 C-74.83881673 -35.74176901 -31.58663262 -24.02682017 0 0 Z M-162 28 C-163.12880785 28.89205162 -164.25772073 29.78397033 -165.38671875 30.67578125 C-188.17726285 49.05205239 -203.49856286 76.50854539 -206.8190918 105.70727539 C-209.40260477 138.44920571 -202.20159915 170.29197207 -180.80859375 195.7890625 C-162.09932825 217.39803812 -135.05899854 234.46300199 -106 237 C-90.85162929 237.63148866 -75.72034958 237.97243079 -61 234 C-59.9171875 233.73316406 -58.834375 233.46632813 -57.71875 233.19140625 C-29.43476174 225.46822984 -4.65123034 205.4563956 10.125 180.40234375 C16.39263688 169.02919433 20.86092354 157.60819141 24 145 C24.2475 144.0203125 24.495 143.040625 24.75 142.03125 C30.71484515 113.20116511 23.27799339 82.12648475 7.87109375 57.5234375 C-11.20413889 28.92765047 -38.8662922 11.58164035 -72.30859375 4.87890625 C-77.98013472 3.89065725 -83.50279665 3.69274817 -89.25 3.75 C-90.25361572 3.75749268 -91.25723145 3.76498535 -92.29125977 3.77270508 C-117.41187646 4.13373201 -142.42412215 11.80619182 -162 28 Z " fill="#030303" transform="translate(893,455)"/>
<path d="M0 0 C1.0505537 -0.00155999 2.1011074 -0.00311998 3.18349606 -0.00472724 C6.66751652 -0.00868301 10.1514926 -0.00556879 13.63551331 -0.00241089 C16.14817836 -0.00376734 18.66084321 -0.00554865 21.17350769 -0.00772095 C27.26829856 -0.01179529 33.36307327 -0.01121568 39.45786434 -0.00830831 C44.41551473 -0.0060421 49.37316169 -0.00574701 54.33081245 -0.00683212 C55.3926453 -0.00706197 55.3926453 -0.00706197 56.47592931 -0.00729647 C57.91438539 -0.00761622 59.35284148 -0.00794043 60.79129756 -0.00826906 C74.25395975 -0.01111502 87.71661511 -0.00785081 101.17927618 -0.00246869 C112.70749796 0.00199757 124.23570967 0.00122316 135.76393127 -0.00338745 C149.17966743 -0.00875052 162.59539761 -0.01083939 176.01113468 -0.00777519 C177.4443541 -0.00745667 178.87757351 -0.0071423 180.31079292 -0.00683212 C181.01580015 -0.00667785 181.72080738 -0.00652357 182.44717846 -0.00636462 C187.39300405 -0.00550459 192.33882581 -0.00695127 197.2846508 -0.00931168 C203.95366153 -0.01242477 210.62265043 -0.01017805 217.29166031 -0.00441742 C219.73245907 -0.00310047 222.17325943 -0.00346575 224.61405754 -0.00568008 C251.17650326 -0.02754746 277.69749596 0.39483551 297.9365387 20.072052 C299.26628007 21.41121927 300.5776528 22.76855451 301.88771057 24.12698364 C302.5399762 24.74831177 303.19224182 25.36963989 303.86427307 26.00979614 C312.80295375 35.11174039 318.87761062 48.67154286 320.88771057 61.12698364 C321.07075745 62.19948364 321.25380432 63.27198364 321.44239807 64.37698364 C321.96500409 68.77787639 322.03423236 73.07566886 322.01271057 77.50198364 C322.01657776 78.32053833 322.02044495 79.13909302 322.02442932 79.98245239 C322.01444957 86.00024465 322.01444957 86.00024465 320.88771057 87.12698364 C318.73593956 87.2259161 316.5808477 87.25254102 314.42680359 87.25282478 C313.74046962 87.25427822 313.05413566 87.25573166 312.3470037 87.25722915 C310.01826592 87.26091499 307.68959254 87.25739087 305.3608551 87.25396729 C303.68603545 87.25511809 302.01121604 87.25670533 300.33639717 87.25869453 C295.71154138 87.2628935 291.08670606 87.26079462 286.46185017 87.25770831 C281.48293222 87.25545673 276.50401794 87.25893261 271.52510071 87.26168823 C261.76248448 87.26614753 251.99987592 87.26516876 242.23725939 87.26227559 C234.30679797 87.26002218 226.37633872 87.25970876 218.44587708 87.26079941 C216.7563184 87.26102926 216.7563184 87.26102926 215.03262722 87.26126375 C212.74481249 87.26158346 210.45699775 87.26190767 208.16918302 87.26223634 C186.68893196 87.2650916 165.20868516 87.26180339 143.7284348 87.25643598 C125.27566522 87.2519679 106.82290192 87.25274382 88.37013245 87.25735474 C66.96959009 87.26269969 45.56905146 87.26481691 24.16850853 87.26174247 C21.88885371 87.26142391 19.60919889 87.26110953 17.32954407 87.26079941 C16.207751 87.26064513 15.08595793 87.26049086 13.93017113 87.26033191 C6.00425319 87.25946651 -1.92166238 87.2609301 -9.84757996 87.26327896 C-19.49946849 87.26607629 -29.15134889 87.26534013 -38.80323648 87.25999822 C-43.73287053 87.25736029 -48.66249098 87.25635768 -53.59212494 87.25964737 C-58.09730986 87.26260847 -62.60246849 87.26102067 -67.107651 87.25566982 C-68.7449091 87.25454483 -70.38216939 87.2551386 -72.01942611 87.25754561 C-74.23011066 87.26054846 -76.44070287 87.25750631 -78.65138245 87.25282478 C-79.88379229 87.25266243 -81.11620213 87.25250008 -82.38595772 87.25233281 C-85.11228943 87.12698364 -85.11228943 87.12698364 -86.11228943 86.12698364 C-87.36677751 64.68006243 -83.69085977 43.96932884 -69.16697693 27.32620239 C-68.48893005 26.60046021 -67.81088318 25.87471802 -67.11228943 25.12698364 C-66.41361755 24.34967896 -65.71494568 23.57237427 -64.99510193 22.77151489 C-59.651333 17.09494897 -53.86886623 12.97688495 -47.11228943 9.12698364 C-45.90959412 8.41542114 -45.90959412 8.41542114 -44.68260193 7.68948364 C-31.18494201 0.25470703 -15.06718937 -0.03515205 0 0 Z " fill="#FEFEFE" transform="translate(410.11228942871094,918.8730163574219)"/>
<path d="M0 0 C6.95206959 5.73603101 11.02944585 12.55383967 13.4296875 21.203125 C13.65949943 24.16769238 13.62015231 27.10702985 13.5546875 30.078125 C13.54566406 30.861875 13.53664063 31.645625 13.52734375 32.453125 C13.50396813 34.36992555 13.46810403 36.28656691 13.4296875 38.203125 C19.7563525 41.43925312 26.08375468 44.67393659 32.41162109 47.90771484 C34.55468629 49.00310197 36.69759545 50.09879443 38.84033203 51.19482422 C51.95799455 57.90432718 65.09585749 64.56921855 78.28594971 71.13528442 C81.7525976 72.86209415 85.21606047 74.59526637 88.6796875 76.328125 C90.35804688 77.16730469 90.35804688 77.16730469 92.0703125 78.0234375 C92.84890625 78.41273438 93.6275 78.80203125 94.4296875 79.203125 C94.97496094 78.67203125 95.52023437 78.1409375 96.08203125 77.59375 C104.39724721 69.80445369 112.48819903 65.81664511 123.96875 65.98828125 C134.13869056 66.8761332 142.68477587 71.66469436 149.4296875 79.203125 C150.0896875 80.193125 150.7496875 81.183125 151.4296875 82.203125 C151.7697583 81.78184326 152.1098291 81.36056152 152.46020508 80.92651367 C155.27975933 78.45927264 158.54799024 77.13079347 161.94140625 75.62890625 C162.66963089 75.30021042 163.39785553 74.97151459 164.14814758 74.63285828 C166.46833872 73.58736511 168.79264349 72.55139856 171.1171875 71.515625 C172.69364015 70.80726516 174.2698155 70.09828784 175.84570312 69.38867188 C179.70385343 67.65298217 183.56571965 65.92582253 187.4296875 64.203125 C187.46634521 63.06439941 187.50300293 61.92567383 187.54077148 60.75244141 C187.60589669 59.22815954 187.67177348 57.70390966 187.73828125 56.1796875 C187.76031616 55.43275635 187.78235107 54.6858252 187.80505371 53.91625977 C188.25857705 44.36376237 192.22627329 35.77151952 199.2421875 29.140625 C207.90750223 22.46850157 216.56503198 19.35774835 227.4296875 20.203125 C237.39922144 22.02418538 245.72073212 26.46525337 251.8671875 34.578125 C256.72796611 41.88889282 258.49506429 47.18850779 258.99609375 55.96875 C259.03899536 56.66500488 259.08189697 57.36125977 259.12609863 58.07861328 C259.23083187 59.78657064 259.33074232 61.49482255 259.4296875 63.203125 C282.1189805 73.04753592 304.82986119 82.83746577 327.6171875 92.453125 C329.00579483 93.03944199 329.00579483 93.03944199 330.42245483 93.63760376 C340.35265532 97.82866435 350.29240196 101.99389718 360.26957703 106.07208252 C365.22744135 108.10200193 365.22744135 108.10200193 367.4296875 109.203125 C368.03103516 108.42388672 368.03103516 108.42388672 368.64453125 107.62890625 C372.96553808 102.32807927 377.21619701 99.03542278 383.4296875 96.203125 C384.19796875 95.83703125 384.96625 95.4709375 385.7578125 95.09375 C393.85213691 92.39564186 404.10340428 93.47329914 411.86328125 96.74609375 C421.53536932 102.23724877 428.44362897 110.51822859 431.4296875 121.203125 C432.55575325 132.98753405 430.92405601 142.83516436 423.4296875 152.203125 C415.30240521 160.62661804 406.76833638 164.01247638 395.1796875 164.515625 C385.933806 164.40271736 378.13352254 160.44462659 371.4296875 154.203125 C364.53517152 146.79790414 361.17367179 139.00169419 361.328125 128.8671875 C361.35011963 126.99087646 361.35011963 126.99087646 361.37255859 125.07666016 C361.39141113 124.12839355 361.41026367 123.18012695 361.4296875 122.203125 C347.18496765 115.7836353 332.89947826 109.5013648 318.47131348 103.503479 C309.16627448 99.63419768 299.8930802 95.69538935 290.63671875 91.7109375 C289.52409668 91.23230759 288.41147461 90.75367767 287.26513672 90.26054382 C282.75910192 88.32152244 278.25336499 86.38185898 273.75067139 84.43508911 C270.58637542 83.066988 267.42028742 81.70311025 264.25390625 80.33984375 C263.29080032 79.92175446 262.3276944 79.50366516 261.33540344 79.07290649 C260.4534581 78.69395233 259.57151276 78.31499817 258.6628418 77.92456055 C257.50403755 77.42378242 257.50403755 77.42378242 256.32182312 76.91288757 C254.45440194 76.08605324 254.45440194 76.08605324 252.4296875 76.203125 C251.22399827 77.39403863 250.06478579 78.6322476 248.9296875 79.890625 C241.63145124 87.40194845 233.23140884 90.42167237 222.9296875 90.640625 C211.61785437 90.76968185 203.12203183 85.74162219 195.1171875 77.953125 C194.281875 77.086875 194.281875 77.086875 193.4296875 76.203125 C192.48351562 76.6878125 191.53734375 77.1725 190.5625 77.671875 C182.99495968 81.51805487 175.37807498 85.19907392 167.6171875 88.640625 C166.84713379 88.98222656 166.07708008 89.32382813 165.28369141 89.67578125 C162.35663333 90.96245766 159.46467239 92.19146337 156.4296875 93.203125 C156.7596875 94.193125 157.0896875 95.183125 157.4296875 96.203125 C158.43568562 105.96625425 156.30949206 114.4884073 150.6171875 122.515625 C143.71951752 130.9060743 136.5507057 135.36365538 125.5859375 136.65625 C116.32098979 137.20780131 109.26102702 135.33782403 101.4296875 130.203125 C100.81609375 129.82027344 100.2025 129.43742188 99.5703125 129.04296875 C93.35611161 124.57450986 89.33121019 116.44659981 87.4296875 109.203125 C87.18787459 106.44583428 87.19406447 103.7189326 87.2421875 100.953125 C87.24283203 100.23382813 87.24347656 99.51453125 87.24414062 98.7734375 C87.28870536 93.48508929 87.28870536 93.48508929 88.4296875 91.203125 C87.61322754 90.96013672 86.79676758 90.71714844 85.95556641 90.46679688 C81.76958993 88.96654662 77.95305099 87.03663449 74.015625 84.984375 C73.21206573 84.5700824 72.40850647 84.15578979 71.58059692 83.72894287 C68.9866574 82.39077887 66.39570771 81.04693132 63.8046875 79.703125 C60.26136976 77.87315058 56.71658969 76.04601666 53.171875 74.21875 C51.88135223 73.55271759 51.88135223 73.55271759 50.5647583 72.87322998 C43.62541589 69.29468297 36.65561917 65.78164675 29.65185547 62.33081055 C26.07509854 60.56022287 22.54522384 58.73659786 19.0546875 56.80078125 C18.35666016 56.41567383 17.65863281 56.03056641 16.93945312 55.63378906 C15.65049976 54.91666 14.36730873 54.18901501 13.09179688 53.44824219 C10.74676963 52.14049055 9.00097329 51.18031504 6.27734375 51.2890625 C3.98921127 52.42103501 2.29072708 53.83657269 0.3671875 55.515625 C-7.48624304 61.74199897 -15.44374622 63.94088802 -25.4296875 63.5859375 C-34.95823717 62.42449737 -43.09469911 57.35211106 -49.3828125 50.203125 C-51.49951799 47.30021461 -53.00752136 44.42722134 -54.5703125 41.203125 C-55.76398438 41.48285156 -56.95765625 41.76257813 -58.1875 42.05078125 C-69.39559703 44.65051222 -80.63299577 47.09469591 -91.89923096 49.427948 C-93.36996105 49.73260354 -94.84046741 50.03834149 -96.31072998 50.34524536 C-105.36124607 52.23157622 -114.4130528 53.90565743 -123.5703125 55.203125 C-123.6528125 56.481875 -123.7353125 57.760625 -123.8203125 59.078125 C-125.06783388 69.56715343 -129.63454635 77.24235967 -137.5703125 84.203125 C-146.99149945 90.21723556 -156.59798106 91.32827756 -167.5703125 90.203125 C-172.13883134 88.92466681 -175.65020053 86.81653298 -179.5703125 84.203125 C-180.51390625 85.08613281 -181.4575 85.96914062 -182.4296875 86.87890625 C-183.72647908 88.09123507 -185.02336055 89.30346774 -186.3203125 90.515625 C-186.99465332 91.14629883 -187.66899414 91.77697266 -188.36376953 92.42675781 C-191.62679096 95.47388355 -194.89722703 98.51110753 -198.203125 101.51171875 C-198.75258789 102.01082764 -199.30205078 102.50993652 -199.86816406 103.02416992 C-201.36815918 104.38322123 -202.87149094 105.73858717 -204.375 107.09375 C-206.61212083 109.00749147 -206.61212083 109.00749147 -207.5703125 111.203125 C-206.97601755 112.62166823 -206.31785883 114.01361268 -205.6328125 115.390625 C-201.99716739 124.20007278 -202.22929702 133.69895165 -205.5703125 142.578125 C-210.69091335 153.19017802 -217.70028623 158.85511449 -228.5703125 163.203125 C-236.60558548 165.79156274 -245.71981447 164.97134613 -253.29296875 161.4609375 C-262.66385096 156.28525299 -269.16551675 149.17000414 -272.875 139.0390625 C-275.44866695 128.54197145 -273.75426036 119.18484955 -268.28515625 110.05859375 C-263.67783925 103.34654141 -256.86425064 97.1596852 -248.9921875 94.640625 C-236.91410714 92.45877823 -226.70055808 94.44962795 -216.5703125 101.203125 C-216.0753125 99.718125 -216.0753125 99.718125 -215.5703125 98.203125 C-214.01489258 96.65576172 -214.01489258 96.65576172 -212.02734375 95.0078125 C-209.07150648 92.50098821 -206.19842593 89.94955138 -203.39453125 87.2734375 C-202.37069336 86.29890625 -202.37069336 86.29890625 -201.32617188 85.3046875 C-199.92534807 83.96603435 -198.52697987 82.62480765 -197.13085938 81.28125 C-196.45474609 80.63929688 -195.77863281 79.99734375 -195.08203125 79.3359375 C-194.17650513 78.46799561 -194.17650513 78.46799561 -193.25268555 77.58251953 C-191.5703125 76.203125 -191.5703125 76.203125 -188.5703125 75.203125 C-188.93125 74.5225 -189.2921875 73.841875 -189.6640625 73.140625 C-194.10876822 63.8561286 -195.44230766 54.53423455 -192.87109375 44.46484375 C-191.94487739 42.20206201 -190.89503387 40.25603172 -189.5703125 38.203125 C-188.91675781 37.16091797 -188.91675781 37.16091797 -188.25 36.09765625 C-182.3857204 27.5575988 -174.59751998 22.66522396 -164.5703125 20.203125 C-155.11508318 18.73475122 -145.92371464 21.47273843 -138.109375 26.91796875 C-132.88356918 31.35698968 -129.05722488 36.32323353 -125.5703125 42.203125 C-120.5934529 41.15935776 -115.61683911 40.11442783 -110.64041138 39.06860352 C-108.88923788 38.70076878 -107.13799707 38.33325431 -105.38668823 37.96606445 C-92.76658014 35.32115666 -92.76658014 35.32115666 -80.171875 32.55859375 C-79.12974854 32.32551514 -78.08762207 32.09243652 -77.01391602 31.85229492 C-75.15356548 31.43312095 -73.29455595 31.00792913 -71.43725586 30.57543945 C-66.68992968 29.50727942 -62.43775764 28.99349075 -57.5703125 29.203125 C-57.44076172 27.95208984 -57.44076172 27.95208984 -57.30859375 26.67578125 C-55.73804333 14.09696914 -51.35452406 6.35391226 -41.5703125 -1.796875 C-28.72235011 -10.14000621 -12.27978892 -8.58465487 0 0 Z " fill="#020202" transform="translate(444.5703125,145.796875)"/>
<path d="M0 0 C19.8 0 39.6 0 60 0 C60 118.14 60 236.28 60 358 C40.2 358 20.4 358 0 358 C0 239.86 0 121.72 0 0 Z " fill="#000000" transform="translate(393,319)"/>
<path d="M0 0 C32.50355421 25.28664784 54.5227428 61.81062232 59.70703125 102.93652344 C63.81336833 145.87512149 50.8581018 185.65298081 24 219 C23.20464844 220.0003125 22.40929687 221.000625 21.58984375 222.03125 C19.73466127 224.36086187 17.87182036 226.68375302 16 229 C17.48800002 232.54891984 19.48818679 234.54567632 22.3125 237.125 C28.93008941 243.60947698 34.0309842 251.05681536 39.33105469 258.62548828 C41.99878589 262.42103446 44.71811675 266.17887516 47.4375 269.9375 C47.97093018 270.67677734 48.50436035 271.41605469 49.05395508 272.17773438 C53.58353356 278.44789246 58.17232385 284.67344833 62.76928711 290.89428711 C67.25816363 296.97544905 71.68990813 303.09595509 76.10546875 309.23046875 C80.03392105 314.68083962 84.00714521 320.09667078 88 325.5 C95.27959514 335.3539512 102.44830513 345.28574596 109.60449219 355.22949219 C116.51468334 364.82814677 123.47061036 374.38997545 130.50756836 383.89624023 C131.06581299 384.65106689 131.62405762 385.40589355 132.19921875 386.18359375 C132.69252686 386.84931396 133.18583496 387.51503418 133.6940918 388.20092773 C136.93289772 392.66283853 136.93289772 392.66283853 137.4765625 395.39453125 C136.78032075 399.2010333 134.38093279 400.58428962 131.375 402.6875 C130.79685547 403.10813721 130.21871094 403.52877441 129.62304688 403.9621582 C128.39235955 404.85493527 127.15683763 405.74107929 125.91699219 406.62109375 C123.98043391 408.01407403 122.08655905 409.45249428 120.1953125 410.90625 C118.9641767 411.83417647 117.7324233 412.7612842 116.5 413.6875 C115.92556152 414.13375732 115.35112305 414.58001465 114.75927734 415.03979492 C112.25421912 416.87764547 110.51669689 417.97847096 107.375 418.109375 C104.04882799 416.55570255 102.66061336 414.52594401 100.5 411.5625 C100.0769458 410.98975342 99.6538916 410.41700684 99.21801758 409.8269043 C97.79743008 407.89481314 96.39843611 405.94817262 95 404 C93.97337484 402.58801892 92.94601071 401.17657487 91.91796875 399.765625 C89.15449487 395.9623155 86.40916545 392.14625822 83.66894531 388.32617188 C80.97232368 384.56762727 78.26876936 380.8141024 75.5625 377.0625 C75.02906982 376.32298096 74.49563965 375.58346191 73.94604492 374.8215332 C69.99686917 369.35658392 66.00624584 363.92321038 62 358.5 C54.72057378 348.64592179 47.55169676 338.71425666 40.39550781 328.77050781 C34.30761222 320.31406925 28.19128778 311.88112958 22 303.5 C15.7743932 295.07199091 9.61646521 286.59729063 3.50195312 278.08837891 C2.05113006 276.07109339 0.59622035 274.05681225 -0.859375 272.04296875 C-13 255.20735359 -13 255.20735359 -13 252 C-17.97236572 253.98183067 -22.94099623 255.97149571 -27.89453125 258 C-66.97900931 273.95132811 -109.26102373 276.84838107 -148.82910156 260.25097656 C-185.30531988 244.34790392 -214.72948185 215.64605888 -230.1875 178.8125 C-232.5006615 172.72998063 -234.42916202 166.55894723 -236.25 160.3125 C-236.49645264 159.46985596 -236.74290527 158.62721191 -236.99682617 157.7590332 C-240.24201923 146.17707043 -241.3504689 134.95392362 -241.31567383 122.96508789 C-241.31251859 120.70084173 -241.33604891 118.4379136 -241.36132812 116.17382812 C-241.40353706 106.39744225 -240.29463621 97.51155492 -238 88 C-237.82686279 87.23002686 -237.65372559 86.46005371 -237.4753418 85.66674805 C-231.52988928 59.73974081 -218.37663982 36.12731955 -200 17 C-199.10796875 16.04480469 -198.2159375 15.08960938 -197.296875 14.10546875 C-175.83033781 -8.48071284 -147.34639592 -22.13539908 -117 -28 C-116.05036377 -28.18618896 -115.10072754 -28.37237793 -114.12231445 -28.56420898 C-74.83881673 -35.74176901 -31.58663262 -24.02682017 0 0 Z M-187 19 C-187.87398437 19.79019531 -188.74796875 20.58039063 -189.6484375 21.39453125 C-206.93017648 37.83126407 -218.9716557 59.98704458 -225.8125 82.6875 C-226.00739014 83.32727783 -226.20228027 83.96705566 -226.40307617 84.6262207 C-229.60640784 95.89082332 -230.39110583 107.27467956 -230.375 118.9375 C-230.37445618 119.60953461 -230.37391235 120.28156921 -230.37335205 120.97396851 C-230.24584174 155.50019151 -218.49437775 186.81988806 -196 213 C-195.278125 213.85722656 -194.55625 214.71445312 -193.8125 215.59765625 C-188.42339955 221.82399195 -182.54587531 227.01578352 -176 232 C-175.22140625 232.59425781 -174.4428125 233.18851563 -173.640625 233.80078125 C-142.37893348 256.61761986 -104.78367937 264.35513825 -66.64916992 259.2734375 C-63.37503047 258.71273857 -60.1898279 257.91082945 -57 257 C-56.21512207 256.7848877 -55.43024414 256.56977539 -54.62158203 256.34814453 C-35.27140901 250.90140177 -17.26383481 242.16879866 -2 229 C-1.10023438 228.2265625 -0.20046875 227.453125 0.7265625 226.65625 C3.19408127 224.47946607 5.60403456 222.2550263 8 220 C8.66257812 219.401875 9.32515625 218.80375 10.0078125 218.1875 C33.00018312 196.59142719 47.62831946 162.38213853 49.14086914 131.08520508 C49.61397043 115.28551924 49.04029435 100.32167917 45 85 C44.82339844 84.32759277 44.64679688 83.65518555 44.46484375 82.96240234 C38.9372939 62.8431445 28.37876372 44.84595019 15 29 C14.30132813 28.16597656 13.60265625 27.33195312 12.8828125 26.47265625 C-7.0147752 3.494837 -35.48667425 -11.16817429 -65 -17 C-66.33647583 -17.27034058 -66.33647583 -17.27034058 -67.69995117 -17.54614258 C-111.32452788 -25.66983918 -154.72227602 -10.36183428 -187 19 Z " fill="#FAFAFA" transform="translate(893,455)"/>
<path d="M0 0 C19.8 0 39.6 0 60 0 C60 89.43 60 178.86 60 271 C40.2 271 20.4 271 0 271 C0 181.57 0 92.14 0 0 Z " fill="#000000" transform="translate(223,406)"/>
<path d="M0 0 C19.8 0 39.6 0 60 0 C60 65.67 60 131.34 60 199 C40.2 199 20.4 199 0 199 C0 133.33 0 67.66 0 0 Z " fill="#000000" transform="translate(308,478)"/>
<path d="M0 0 C19.8 0 39.6 0 60 0 C60 28.71 60 57.42 60 87 C40.2 87 20.4 87 0 87 C0 58.29 0 29.58 0 0 Z " fill="#000000" transform="translate(138,590)"/>
<path d="M0 0 C1.03125 0.53625 2.0625 1.0725 3.125 1.625 C4.053125 2.305625 4.053125 2.305625 5 3 C5 3.66 5 4.32 5 5 C5.99 5.33 6.98 5.66 8 6 C8 6.66 8 7.32 8 8 C8.66 8 9.32 8 10 8 C11.4375 9.7578125 11.4375 9.7578125 13 12.125 C13.515625 12.89070313 14.03125 13.65640625 14.5625 14.4453125 C19.18812154 22.66584643 19.4430432 32.28152182 17.16015625 41.328125 C12.92293141 52.45619024 6.43853531 58.91467265 -4.265625 63.90625 C-12.1785716 67.07142864 -21.28351135 67.3749787 -29.3125 64.375 C-39.10710277 59.83487619 -45.79312318 53.14753448 -50.375 43.375 C-53.28636609 35.42379009 -53.28636609 26.57620991 -50.375 18.625 C-45.93241635 9.16709543 -38.95911537 1.52119715 -29.375 -2.9375 C-19.58450898 -6.07045713 -8.94062198 -4.76260056 0 0 Z " fill="#020202" transform="translate(223,244)"/>
<path d="M0 0 C9.67208807 5.49115502 16.58034772 13.77213484 19.56640625 24.45703125 C20.692472 36.2414403 19.06077476 46.08907061 11.56640625 55.45703125 C3.43912396 63.88052429 -5.09494487 67.26638263 -16.68359375 67.76953125 C-25.92947525 67.65662361 -33.72975871 63.69853284 -40.43359375 57.45703125 C-47.9201395 49.41592656 -51.41071992 40.25419002 -51.07421875 29.2578125 C-49.4509853 19.62728722 -44.33984115 9.65710325 -36.453125 3.71484375 C-25.21818725 -3.28254495 -12.52778324 -5.28369994 0 0 Z " fill="#020202" transform="translate(856.43359375,242.54296875)"/>
<path d="M0 0 C7.36727884 6.33928644 12.14296505 14.96604242 13.3203125 24.62890625 C13.77138837 35.19911746 10.07175411 44.22790309 3 52 C-3.50064816 59.03964663 -11.35363536 62.00723122 -20.8737793 62.57397461 C-29.41880805 62.78525002 -35.83845403 60.69554193 -43 56 C-43.92039062 55.42572266 -43.92039062 55.42572266 -44.859375 54.83984375 C-51.12520735 50.33425812 -54.99964385 42.26255431 -57 35 C-58.65521409 22.64016363 -56.11384594 14.07896526 -49 4 C-36.22400126 -11.05117659 -15.22719006 -11.43746339 0 0 Z " fill="#020202" transform="translate(589,220)"/>
<path d="M0 0 C0.33 0 0.66 0 1 0 C1.33 4.95 1.66 9.9 2 15 C24.689293 24.84441092 47.40017369 34.63434077 70.1875 44.25 C71.11323822 44.64087799 72.03897644 45.03175598 72.99276733 45.43447876 C75.67569702 46.5668145 78.35926995 47.69761351 81.04296875 48.828125 C81.88494308 49.18376022 82.72691742 49.53939545 83.59440613 49.9058075 C87.71557541 51.64137415 91.84554876 53.3457898 96.00244141 54.99414062 C96.79129227 55.30953796 97.58014313 55.6249353 98.39289856 55.94989014 C99.87200058 56.53915428 101.35418776 57.12075573 102.83988953 57.69317627 C106.36415914 59.10132881 107.83672158 59.75508237 110 63 C108.35 66.3 106.7 69.6 105 73 C101.27503943 72.25500789 98.64341415 71.56146321 95.25292969 70.10839844 C94.32863663 69.71502792 93.40434357 69.32165741 92.45204163 68.91636658 C91.45208664 68.48505936 90.45213165 68.05375214 89.421875 67.609375 C88.36193832 67.15683853 87.30200165 66.70430206 86.20994568 66.23805237 C82.72112694 64.74704707 79.23539012 63.249001 75.75 61.75 C72.72511468 60.45194202 69.70003037 59.15434934 66.67484379 57.85699368 C65.75947173 57.46442174 65.75947173 57.46442174 64.8256073 57.06391907 C64.21227224 56.800888 63.59893719 56.53785694 62.96701622 56.26685524 C61.08582775 55.45976897 59.20498952 54.65187041 57.32417297 53.84391785 C49.9245504 50.66744569 42.51165525 47.52560492 35.08328247 44.4168396 C30.53127206 42.51136978 25.98389131 40.59499833 21.43688965 38.6776123 C19.27263579 37.76838014 17.10620484 36.86431264 14.93762207 35.9654541 C11.92513485 34.71584097 8.9209436 33.44804837 5.91796875 32.17578125 C5.02266953 31.81005508 4.1273703 31.44432892 3.2049408 31.06752014 C1.99204124 30.54743629 1.99204124 30.54743629 0.75463867 30.0168457 C-0.30343742 29.57463432 -0.30343742 29.57463432 -1.38288879 29.12348938 C-3 28 -3 28 -3.82060242 26.07707214 C-4 24 -4 24 -2.625 20.75 C0.08931541 14.25547363 -0.24415012 6.93723102 0 0 Z " fill="#070707" transform="translate(702,194)"/>
<path d="M0 0 C0.47843353 0.30900238 0.95686707 0.61800476 1.44979858 0.93637085 C6.35645436 4.0602733 11.35474116 6.84404884 16.5390625 9.4765625 C17.33441406 9.88392136 18.12976563 10.29128021 18.94921875 10.71098328 C21.50600979 12.01921861 24.0654274 13.32221653 26.625 14.625 C28.39122775 15.52736387 30.15734054 16.4299528 31.92333984 17.33276367 C41.98678056 22.47221322 52.07243982 27.5642083 62.19433594 32.58764648 C68.8780149 35.91259434 75.46673759 39.38821531 82 43 C81.342425 47.55833544 80.22049017 50.94519187 78 55 C72.87064978 54.39914975 68.75238231 52.01743822 64.24609375 49.66015625 C63.39056412 49.21917099 62.53503448 48.77818573 61.65357971 48.32383728 C58.91183547 46.90920441 56.17454196 45.4862062 53.4375 44.0625 C49.87482824 42.21786299 46.31044916 40.37653734 42.74609375 38.53515625 C41.4192028 37.84838303 41.4192028 37.84838303 40.06550598 37.1477356 C32.99986995 33.49706263 25.89797976 29.92264474 18.77342224 26.38844299 C0.37015079 17.24676719 0.37015079 17.24676719 -6 13 C-5.65066406 12.39671875 -5.30132812 11.7934375 -4.94140625 11.171875 C-4.25884766 9.97304687 -4.25884766 9.97304687 -3.5625 8.75 C-3.11003906 7.96109375 -2.65757812 7.1721875 -2.19140625 6.359375 C-1.10013995 4.19830994 -0.53774354 2.34102006 0 0 Z " fill="#070707" transform="translate(456,182)"/>
<path d="M0 0 C0 0.99 0 1.98 0 3 C0.66 3 1.32 3 2 3 C2 5.97 2 8.94 2 12 C-8.9912348 14.85747257 -20.02679031 17.34854902 -31.15551758 19.60986328 C-33.6965276 20.12683668 -36.23599108 20.65096062 -38.77539062 21.17578125 C-47.82223807 23.03254197 -56.84960477 24.72656054 -66 26 C-66 27.98 -66 29.96 -66 32 C-66.33 32 -66.66 32 -67 32 C-67.06058594 31.11957031 -67.12117188 30.23914063 -67.18359375 29.33203125 C-67.26738281 28.17058594 -67.35117187 27.00914062 -67.4375 25.8125 C-67.51871094 24.66394531 -67.59992188 23.51539063 -67.68359375 22.33203125 C-67.95403812 19.48401829 -68.37521747 16.78789518 -69 14 C-62.20007333 11.50945239 -55.39136026 9.92417465 -48.2890625 8.5546875 C-47.1991098 8.33934357 -46.1091571 8.12399963 -44.98617554 7.90213013 C-41.53350946 7.22089506 -38.07936679 6.54755292 -34.625 5.875 C-31.14949692 5.19393405 -27.6743321 4.51120388 -24.19955444 3.82644653 C-22.04429497 3.40217718 -19.8885666 2.98028142 -17.73233032 2.56100464 C-16.76056854 2.37055573 -15.78880676 2.18010681 -14.78759766 1.98388672 C-13.93316071 1.81750702 -13.07872375 1.65112732 -12.19839478 1.47970581 C-7.88908177 0.53938221 -4.48685466 -0.08465764 0 0 Z " fill="#070707" transform="translate(387,175)"/>
<path d="M0 0 C1.8272911 2.74093665 2.93698178 5.13825324 4.125 8.1875 C4.47820313 9.08855469 4.83140625 9.98960937 5.1953125 10.91796875 C5.59363281 11.94857422 5.59363281 11.94857422 6 13 C1.86316637 15.8900145 -2.20287683 18.15600217 -6.82421875 20.234375 C-7.45229935 20.51726379 -8.08037994 20.80015259 -8.72749329 21.09161377 C-10.0431197 21.68241218 -11.3599674 22.27049795 -12.67797852 22.85595703 C-14.69602951 23.75379481 -16.70847477 24.66341808 -18.72070312 25.57421875 C-20.00489059 26.14914774 -21.28938526 26.72339117 -22.57421875 27.296875 C-23.73526123 27.81604492 -24.89630371 28.33521484 -26.0925293 28.87011719 C-29 30 -29 30 -32 30 C-32 29.34 -32 28.68 -32 28 C-32.66 28 -33.32 28 -34 28 C-35.61989062 24.45648927 -36.10414268 21.87280581 -36 18 C-34.94498291 17.52578613 -33.88996582 17.05157227 -32.80297852 16.56298828 C-28.89949734 14.80640907 -24.99984876 13.04146212 -21.10131836 11.27392578 C-19.41160224 10.50925571 -17.72084737 9.74687679 -16.02905273 8.98681641 C-13.60125157 7.89562186 -11.17727241 6.79631469 -8.75390625 5.6953125 C-7.99348526 5.3556546 -7.23306427 5.0159967 -6.44960022 4.66604614 C-2.54035357 3.11828314 -2.54035357 3.11828314 0 0 Z " fill="#080808" transform="translate(633,208)"/>
<path d="M0 0 C4 0 4 0 5.73828125 1.390625 C6.51751953 2.31101563 6.51751953 2.31101563 7.3125 3.25 C7.84488281 3.85328125 8.37726563 4.4565625 8.92578125 5.078125 C10 7 10 7 9.99609375 8.921875 C8.51686069 12.00796122 6.31267562 13.74591883 3.75 16 C2.66067189 16.96395575 1.57216015 17.92883466 0.484375 18.89453125 C-0.08474609 19.39678223 -0.65386719 19.8990332 -1.24023438 20.41650391 C-3.04400802 22.03959989 -4.79889755 23.70378456 -6.546875 25.38671875 C-7.12405273 25.93779297 -7.70123047 26.48886719 -8.29589844 27.05664062 C-9.41520159 28.12783619 -10.52807932 29.20579423 -11.63378906 30.29101562 C-15.55211187 34 -15.55211187 34 -20 34 C-20.495 32.515 -20.495 32.515 -21 31 C-21.66 31 -22.32 31 -23 31 C-24.6875 29.8125 -24.6875 29.8125 -26 28 C-25.76111599 25.08306937 -25.41264994 23.46363848 -23.44897461 21.25732422 C-22.79421143 20.7367041 -22.13944824 20.21608398 -21.46484375 19.6796875 C-18.47559242 17.21810807 -15.57481309 14.72443723 -12.75390625 12.0703125 C-12.06232422 11.420625 -11.37074219 10.7709375 -10.65820312 10.1015625 C-9.96662109 9.44929687 -9.27503906 8.79703125 -8.5625 8.125 C-7.84384766 7.44953125 -7.12519531 6.7740625 -6.38476562 6.078125 C-3.16113226 3.0714702 -3.16113226 3.0714702 0 0 Z " fill="#090909" transform="translate(254,221)"/>
<path d="M0 0 C3.75212276 2.01502889 5.63644095 3.45466142 8 7 C8.7625943 11.65537221 8.39395811 15.19749274 6.3125 19.4375 C2.92750196 23.18844378 0.53677872 23.77232908 -4.375 24.5 C-9.19606272 23.83502583 -11.85889115 21.64688062 -15 18 C-16.50186547 13.49440359 -16.71589695 9.65786663 -14.8125 5.25 C-10.81493768 0.28750885 -6.27396116 -1.12955856 0 0 Z " fill="#F9F9F9" transform="translate(845,263)"/>
<path d="M0 0 C4.18459301 1.72841885 6.20718739 3.84822343 8 8 C8.54223844 12.26044487 8.30065535 14.42096006 6.3125 18.25 C2.97439585 22.21963737 0.74207896 23.77828086 -4.4375 24.4375 C-8.68345227 23.91606726 -10.73817577 22.73082959 -14 20 C-16.54993405 15.82579288 -16.83355164 11.77022624 -16 7 C-12.13390866 0.07265418 -7.35267954 -0.700862 0 0 Z " fill="#F8F8F8" transform="translate(427,162)"/>
<path d="M0 0 C4.30619632 2.23590963 7.26400997 4.40473228 9 9 C9.29898412 13.97400857 8.73832098 17.09129725 5.5625 21 C1.66638549 24.04086986 -0.8245237 24.39064823 -5.671875 24.359375 C-9.59004236 23.75455722 -11.30358816 21.83123243 -14 19 C-15.75845645 15.48308711 -15.68065337 11.82789463 -15 8 C-11.15632101 1.60175281 -7.51154726 -0.62596227 0 0 Z " fill="#F8F8F8" transform="translate(289,189)"/>
<path d="M0 0 C4.30619632 2.23590963 7.26400997 4.40473228 9 9 C9.29898412 13.97400857 8.73832098 17.09129725 5.5625 21 C1.66719127 24.04024096 -0.82442138 24.39456112 -5.671875 24.35546875 C-9.62769681 23.75147582 -11.30658423 21.89542195 -14 19 C-15.2517847 15.24464589 -15.77373976 11.88289586 -15 8 C-11.05337391 1.64896787 -7.56987948 -0.63082329 0 0 Z " fill="#F9F9F9" transform="translate(570,235)"/>
<path d="M0 0 C3.77062132 2.07014504 7.005306 4.12142833 9 8 C9.57968839 13.21719552 8.81446546 16.57726857 6 21 C2.25517747 24.40438412 -0.60966188 24.5635767 -5.51953125 24.42578125 C-9.58065982 23.72867414 -11.25558026 22.02589869 -14 19 C-15.24443369 15.26669892 -15.65860234 11.8711182 -15 8 C-11.61926171 1.8200104 -6.92359299 -0.83083116 0 0 Z " fill="#F9F9F9" transform="translate(671,189)"/>
<path d="M0 0 C3.13180809 1.62390049 5.24339744 3.00266026 7.375 5.8125 C8.645452 10.25908198 8.37897786 13.90517508 6.875 18.25 C4.55557782 21.65181919 2.87765844 22.65773362 -1 24 C-4.58361927 24.58641043 -6.8399901 24.7333661 -9.96484375 22.7578125 C-12.98110168 20.27818941 -14.74428802 18.76713594 -16 15 C-16.36945059 10.01241703 -16.18227193 6.95040654 -13 3 C-9.05101934 -0.27201255 -4.98263803 -0.8873191 0 0 Z " fill="#FAFAFA" transform="translate(210,263)"/>
</svg>
